<svg width="16" height="16" viewBox="0 0 16 16" fill="none" xmlns="http://www.w3.org/2000/svg">
<g clip-path="url(#clip0_5736_3991)">
<path d="M5.33342 0.666666H2.66675C1.56218 0.666666 0.666748 1.5621 0.666748 2.66667V5.33333C0.666748 6.4379 1.56218 7.33333 2.66675 7.33333H5.33342C6.43798 7.33333 7.33342 6.4379 7.33342 5.33333V2.66667C7.33342 1.5621 6.43798 0.666666 5.33342 0.666666Z" fill="black"/>
<path d="M13.3334 0.666666H10.6667C9.56218 0.666666 8.66675 1.5621 8.66675 2.66667V5.33333C8.66675 6.4379 9.56218 7.33333 10.6667 7.33333H13.3334C14.438 7.33333 15.3334 6.4379 15.3334 5.33333V2.66667C15.3334 1.5621 14.438 0.666666 13.3334 0.666666Z" fill="black"/>
<path d="M5.33342 8.66667H2.66675C1.56218 8.66667 0.666748 9.5621 0.666748 10.6667V13.3333C0.666748 14.4379 1.56218 15.3333 2.66675 15.3333H5.33342C6.43798 15.3333 7.33342 14.4379 7.33342 13.3333V10.6667C7.33342 9.5621 6.43798 8.66667 5.33342 8.66667Z" fill="black"/>
<path d="M13.3334 8.66667H10.6667C9.56218 8.66667 8.66675 9.5621 8.66675 10.6667V13.3333C8.66675 14.4379 9.56218 15.3333 10.6667 15.3333H13.3334C14.438 15.3333 15.3334 14.4379 15.3334 13.3333V10.6667C15.3334 9.5621 14.438 8.66667 13.3334 8.66667Z" fill="black"/>
</g>
<defs>
<clipPath id="clip0_5736_3991">
<rect width="16" height="16" fill="white"/>
</clipPath>
</defs>
</svg>
