<svg width="24" height="24" viewBox="0 0 24 24" fill="none" xmlns="http://www.w3.org/2000/svg">
<g clip-path="url(#clip0_5674_31767)">
<path d="M19.8225 23.3625H4.1775C3.26839 23.3585 2.39776 22.9951 1.75562 22.3515C1.11348 21.708 0.751972 20.8366 0.75 19.9275V8.31745C0.753756 7.70201 0.922797 7.09887 1.23945 6.57112C1.5561 6.04337 2.00873 5.61039 2.55 5.31745L10.3575 1.04995C10.8603 0.776224 11.4237 0.632813 11.9962 0.632812C12.5688 0.632812 13.1322 0.776224 13.635 1.04995L21.465 5.29495C22.0063 5.58789 22.4589 6.02087 22.7756 6.54862C23.0922 7.07637 23.2612 7.67951 23.265 8.29496V19.9275C23.263 20.8392 22.8994 21.7129 22.2541 22.3568C21.6087 23.0008 20.7342 23.3625 19.8225 23.3625ZM12 2.12995C11.6779 2.12948 11.3609 2.20939 11.0775 2.36245L3.2475 6.61495C2.9438 6.78315 2.69094 7.02996 2.51543 7.3295C2.33993 7.62905 2.24825 7.97029 2.25 8.31745V19.9275C2.25 20.4406 2.45387 20.9328 2.81675 21.2957C3.17963 21.6586 3.67181 21.8625 4.185 21.8625H19.8225C20.3344 21.8605 20.8246 21.6557 21.1859 21.2931C21.5472 20.9304 21.75 20.4394 21.75 19.9275V8.31745C21.7503 7.96878 21.6563 7.62651 21.4781 7.32682C21.2999 7.02714 21.044 6.78118 20.7375 6.61495L12.9225 2.36995C12.6398 2.21428 12.3227 2.13178 12 2.12995Z" fill="black"/>
<path d="M11.9963 20.0714C10.9524 20.0716 9.9408 19.7088 9.1349 19.0452C8.329 18.3816 7.7789 17.4585 7.57881 16.4339C7.56249 16.3264 7.56974 16.2166 7.60005 16.1122C7.63037 16.0078 7.68302 15.9112 7.75436 15.8292C7.8257 15.7471 7.91403 15.6816 8.01322 15.6371C8.11241 15.5926 8.22009 15.5701 8.32881 15.5714C8.50748 15.5688 8.68121 15.6301 8.81871 15.7442C8.95621 15.8583 9.04845 16.0178 9.07881 16.1939C9.22005 16.8681 9.58901 17.4731 10.1237 17.9074C10.6584 18.3417 11.3262 18.5787 12.0151 18.5787C12.7039 18.5787 13.3717 18.3417 13.9064 17.9074C14.4411 17.4731 14.8101 16.8681 14.9513 16.1939C14.9817 16.0178 15.0739 15.8583 15.2114 15.7442C15.3489 15.6301 15.5226 15.5688 15.7013 15.5714C15.81 15.5701 15.9177 15.5926 16.0169 15.6371C16.1161 15.6816 16.2044 15.7471 16.2758 15.8292C16.3471 15.9112 16.3997 16.0078 16.4301 16.1122C16.4604 16.2166 16.4676 16.3264 16.4513 16.4339C16.25 17.4648 15.6944 18.3929 14.8808 19.0572C14.0671 19.7216 13.0467 20.0803 11.9963 20.0714Z" fill="black"/>
</g>
<defs>
<clipPath id="clip0_5674_31767">
<rect width="24" height="24" fill="white"/>
</clipPath>
</defs>
</svg>
